:SAMPLES-PER-SECOND 30
:FULLY-SPECIFIED
:DEGREES
662
root  58.5647 38.3038 -1.34868 3.12221 -87.4468 -6.54999
RightUpLeg  -2.10278 -8.0799 3.6861
RightLeg  20.1806 3.30623 2.46393
RightFoot  -15.1727 -0.262709 -4.78727
RightToes  -1.16417e-010 0 -3.6325e-017
Spine  3.95891 1.67996 14.7739
Spine1  6.46595 4.3159 -6.5921
HEad  -5.2391 -15.342 -7.73571
LeftShoulder1  -0.464233 4.70631 -32.4645
LeftArm  12.773 11.1314 -40.6708
LeftForeArm  20.0873 -18.311 -6.20607
LeftHand  -0.0470196 8.54976 -0.0119468
RightShoulder  -0.933338 -6.22404 27.7434
RightArm  23.7651 13.1162 51.6032
RightForeArm  9.97666 24.9065 4.80357
RightHand  -0.12953 3.32439 -1.96877
LeftUpLeg  -19.8652 -4.95697 3.81959
LeftLeg  44.6653 -2.27551 -2.01862
LeftFoot  -3.7124 0.337277 -4.71717
LeftToes  3.13772e-010 -3.14513e-011 3.96022e-013
663
root  57.5766 38.3964 -1.37855 -8.50266 -88.0907 4.92291
RightUpLeg  0.735194 -8.30033 2.85349
RightLeg  18.3244 4.43997 2.82211
RightFoot  -15.6885 -0.282704 -4.64744
RightToes  -1.16417e-010 0 -3.6325e-017
Spine  4.14928 1.86245 14.2666
Spine1  6.29354 4.43317 -7.23035
HEad  -6.07397 -14.953 -7.98294
LeftShoulder1  -0.531429 4.86435 -32.9088
LeftArm  10.1281 11.7889 -40.4238
LeftForeArm  22.4579 -16.8173 -6.93346
LeftHand  -0.0426319 8.76306 0.167373
RightShoulder  -0.883152 -6.10484 27.3602
RightArm  24.0541 14.2217 52.1338
RightForeArm  10.3266 26.2893 5.10049
RightHand  -0.120874 3.43651 -1.83372
LeftUpLeg  -20.478 -5.15299 3.3647
LeftLeg  36.5586 -3.0708 -2.07656
LeftFoot  -3.4132 0.331396 -4.48685
LeftToes  3.13772e-010 -3.14513e-011 3.96022e-013
664
root  56.5721 38.4507 -1.41023 -30.8062 -88.5799 27.5284
RightUpLeg  3.04765 -8.61409 1.9497
RightLeg  16.546 5.71632 3.17903
RightFoot  -16.1542 -0.310579 -4.79351
RightToes  -1.16417e-010 0 -3.6325e-017
Spine  4.04899 2.06859 13.6633
Spine1  5.88931 4.55231 -7.99648
HEad  -6.79166 -14.5703 -7.985
LeftShoulder1  -0.547055 4.89675 -33.0978
LeftArm  7.81537 12.7768 -40.2912
LeftForeArm  24.3222 -15.4911 -7.50714
LeftHand  -0.0572019 9.2882 -0.162451
RightShoulder  -0.834248 -5.98417 27.0167
RightArm  24.1075 14.7111 52.8555
RightForeArm  10.7825 27.1265 5.2661
RightHand  -0.140781 3.85451 -2.03131
LeftUpLeg  -20.8797 -4.92183 2.69809
LeftLeg  27.2648 -4.27931 -2.08186
LeftFoot  -2.96135 0.35462 -4.59934
LeftToes  3.13772e-010 -3.14513e-011 3.96022e-013
665
root  55.5553 38.4831 -1.46969 -59.3278 -88.5945 56.2731
RightUpLeg  5.4133 -8.51409 1.31628
RightLeg  14.7169 6.35585 2.93322
RightFoot  -16.6884 -0.325042 -4.5445
RightToes  -1.16417e-010 0 -3.6325e-017
Spine  3.99484 2.26305 12.6965
Spine1  5.60702 4.73236 -8.89764
HEad  -6.69591 -14.7816 -7.55499
LeftShoulder1  -0.463675 4.69985 -32.6183
LeftArm  5.20151 13.763 -40.6519
LeftForeArm  27.5553 -13.9795 -8.04449
LeftHand  -0.0852113 9.89313 -0.778313
RightShoulder  -0.901714 -6.13021 27.7539
RightArm  25.0504 15.0405 52.7573
RightForeArm  10.5501 27.4628 5.35611
RightHand  -0.13569 3.95634 -1.94484
LeftUpLeg  -20.625 -3.55419 1.54825
LeftLeg  17.4421 -5.12023 -1.39578
LeftFoot  -2.79534 0.42362 -5.43677
LeftToes  3.13772e-010 -3.14513e-011 3.96022e-013
666
root  54.5063 38.4984 -1.51579 -82.3788 -88.4624 79.5064
RightUpLeg  7.96695 -8.41223 0.750094
RightLeg  12.7273 6.99516 2.72501
RightFoot  -17.0346 -0.325721 -4.23053
RightToes  -1.16417e-010 0 -3.6325e-017
Spine  3.3773 2.28746 11.5397
Spine1  6.47153 4.7267 -9.16428
HEad  -7.85262 -14.1323 -7.5261
LeftShoulder1  -0.631946 5.11368 -33.1058
LeftArm  3.90805 14.0807 -40.353
LeftForeArm  29.3638 -12.8808 -8.44886
LeftHand  -0.0897043 10.1539 -0.83165
RightShoulder  -0.795137 -5.84294 27.3784
RightArm  25.6882 14.7945 53.4664
RightForeArm  10.1448 27.3595 5.35438
RightHand  -0.171056 4.70913 -2.25423
LeftUpLeg  -19.9177 -0.368525 -0.0357741
LeftLeg  7.88237 -5.09124 -0.560469
LeftFoot  -2.1422 0.550342 -6.67142
LeftToes  3.13772e-010 -3.14513e-011 3.96022e-013
667
root  53.3871 38.4397 -1.51714 -102.224 -88.3737 99.5138
RightUpLeg  10.5628 -8.49538 0.201495
RightLeg  10.9611 7.97096 2.74182
RightFoot  -17.4825 -0.336408 -4.07115
RightToes  -1.16417e-010 0 -3.6325e-017
Spine  3.25888 2.41652 10.5792
Spine1  6.58013 4.77754 -9.02405
HEad  -8.59108 -13.4389 -7.37562
LeftShoulder1  -0.640268 5.11183 -33.6564
LeftArm  2.73685 14.8776 -39.9089
LeftForeArm  32.0196 -12.0288 -8.6421
LeftHand  -0.129092 9.11412 -2.31776
RightShoulder  -0.820158 -5.91421 27.4019
RightArm  26.7287 13.9738 53.5684
RightForeArm  10.157 26.8471 5.23644
RightHand  -0.117917 4.21813 -1.70444
LeftUpLeg  -19.1803 1.32299 -0.835697
LeftLeg  -0.0562296 -1.51887 -0.725606
LeftFoot  -1.67847 0.664425 -7.75698
LeftToes  3.13772e-010 -3.14513e-011 3.96022e-013
668
root  52.1993 38.2743 -1.47399 -127.292 -88.2459 124.847
RightUpLeg  12.5909 -8.78392 -0.370185
RightLeg  10.4549 9.45077 3.02944
RightFoot  -18.3709 -0.353271 -3.72315
RightToes  -1.16417e-010 0 -3.6325e-017
Spine  2.74767 2.50626 10.5595
Spine1  6.93006 5.00841 -9.68515
HEad  -8.94088 -13.225 -7.28071
LeftShoulder1  -0.618018 5.06167 -33.5119
LeftArm  1.21581 15.5701 -40.0258
LeftForeArm  33.3931 -11.2305 -8.71863
LeftHand  -0.122415 8.9541 -2.27402
RightShoulder  -0.908236 -6.11763 28.1778
RightArm  28.9969 13.3051 53.5177
RightForeArm  8.96091 25.3943 4.95339
RightHand  -0.1059 4.23294 -1.54577
LeftUpLeg  -19.0326 1.27865 -1.04141
LeftLeg  -4.15115 3.42362 -1.23383
LeftFoot  -2.28899 0.702449 -8.67818
LeftToes  3.13772e-010 -3.14513e-011 3.96022e-013
669
root  50.9302 38.027 -1.42055 -147.291 -88.0064 145.026
RightUpLeg  14.3326 -9.10478 -0.780737
RightLeg  11.0063 10.7231 3.31974
RightFoot  -19.5046 -0.376154 -3.42935
RightToes  -1.16417e-010 0 -3.6325e-017
Spine  2.3757 2.57419 10.2438
Spine1  7.27368 5.04405 -9.47671
HEad  -9.87221 -12.6827 -7.25994
LeftShoulder1  -0.57795 4.96026 -33.5248
LeftArm  0.442161 16.3533 -40.1276
LeftForeArm  33.6616 -11.0691 -8.61734
LeftHand  -0.145129 9.79848 -2.29193
RightShoulder  -0.898897 -6.0938 28.129
RightArm  30.959 12.0761 53.9371
RightForeArm  8.26019 23.0755 4.62373
RightHand  0.000791371 4.30299 -0.26895
LeftUpLeg  -19.7335 1.26048 -1.29439
LeftLeg  -2.98057 7.73779 -1.53633
LeftFoot  -2.09013 0.638406 -7.59888
LeftToes  3.13772e-010 -3.14513e-011 3.96022e-013
670
root  49.5485 37.7881 -1.38396 -158.65 -87.2447 156.332
RightUpLeg  16.5231 -9.34202 -1.63385
RightLeg  11.5382 12.4779 3.38956
RightFoot  -20.4357 -0.333867 -2.45604
RightToes  -1.16417e-010 0 -3.6325e-017
Spine  2.08024 2.84444 9.26685
Spine1  7.57462 5.26512 -9.01384
HEad  -10.5844 -12.2 -7.22165
LeftShoulder1  -0.617263 5.05299 -33.6829
LeftArm  0.423644 16.7955 -39.8562
LeftForeArm  33.9669 -10.8595 -8.6994
LeftHand  -0.148091 9.8293 -2.35156
RightShoulder  -0.918823 -6.1178 28.5707
RightArm  31.7843 10.4601 53.6923
RightForeArm  7.92757 19.9133 5.2772
RightHand  -0.0575252 4.54063 -0.963842
LeftUpLeg  -20.5712 1.57732 -1.84429
LeftLeg  1.46055 9.9029 -1.43824
LeftFoot  0.0115518 0.465957 -5.14762
LeftToes  3.13772e-010 -3.14513e-011 3.96022e-013
671
root  48.1012 37.6324 -1.32144 -152.771 -85.9122 150.454
RightUpLeg  18.6201 -9.55239 -3.72664
RightLeg  12.1983 14.649 3.53156
RightFoot  -20.8455 -0.201297 -0.738723
RightToes  -1.16417e-010 0 -3.6325e-017
Spine  1.9533 3.05814 7.65011
Spine1  7.50288 5.6195 -9.32624
HEad  -10.8244 -11.4981 -7.26803
LeftShoulder1  -0.644364 5.11564 -33.8163
LeftArm  0.242849 17.2731 -39.1656
LeftForeArm  33.9462 -10.636 -8.75413
LeftHand  -0.139424 10.3259 -1.86319
RightShoulder  -0.983593 -6.23384 29.4741
RightArm  29.2214 8.68602 53.0402
RightForeArm  12.2781 15.5343 7.25638
RightHand  -0.0495531 3.91199 -0.883325
LeftUpLeg  -21.7142 1.56365 -3.50173
LeftLeg  6.28704 8.74213 -0.621468
LeftFoot  6.02982 -0.455118 2.78538
LeftToes  3.13772e-010 -3.14513e-011 3.96022e-013
672
root  46.5792 37.4771 -1.26348 -144.468 -84.2346 141.828
RightUpLeg  20.3628 -8.93449 -6.30314
RightLeg  14.2771 16.2318 3.95489
RightFoot  -21.0342 0.015134 1.82482
RightToes  -1.16417e-010 0 -3.6325e-017
Spine  1.7633 3.32895 5.08319
Spine1  7.39342 5.77138 -9.05204
HEad  -10.9962 -10.9285 -6.82247
LeftShoulder1  -0.677426 5.19821 -33.8145
LeftArm  0.307493 17.279 -38.511
LeftForeArm  33.7844 -10.3668 -8.8714
LeftHand  -0.135212 10.4495 -1.76429
RightShoulder  -1.00475 -6.25403 29.979
RightArm  23.2253 6.68041 52.8344
RightForeArm  20.768 9.96483 9.18194
RightHand  0.00433812 2.10595 -0.0857935
LeftUpLeg  -21.9685 2.41029 -5.70148
LeftLeg  10.7901 7.39383 0.431093
LeftFoot  10.4267 -1.20073 6.02249
LeftToes  3.13772e-010 -3.14513e-011 3.96022e-013
673
root  45.1082 37.3942 -1.2361 -128.098 -83.5084 125.107
RightUpLeg  20.6992 -7.44688 -8.40574
RightLeg  18.8595 15.3743 5.3952
RightFoot  -19.7607 0.246411 5.27981
RightToes  -1.16417e-010 0 -3.6325e-017
Spine  1.59747 3.17493 1.10229
Spine1  7.24354 5.11312 -7.24153
HEad  -11.1552 -10.7144 -7.15738
LeftShoulder1  -0.668087 5.14994 -34.4068
LeftArm  -1.9062 15.6206 -37.7223
LeftForeArm  36.6156 -8.34569 -9.01988
LeftHand  -0.148768 9.36362 -2.68441
RightShoulder  -1.01874 -6.26781 30.3012
RightArm  18.536 3.95916 52.1774
RightForeArm  27.3525 5.4551 9.42594
RightHand  0.0665674 1.19973 1.03999
LeftUpLeg  -22.2324 2.77243 -8.85568
LeftLeg  16.3803 5.7591 2.04346
LeftFoot  7.74111 -1.48024 8.49996
LeftToes  3.13772e-010 -3.14513e-011 3.96022e-013
